<?xml version="1.0" encoding="iso-8859-1"?>
<!-- Generator: Adobe Illustrator 25.4.1, SVG Export Plug-In . SVG Version: 6.00 Build 0)  -->
<svg version="1.1" baseProfile="basic" id="Layer_1"
	 xmlns="http://www.w3.org/2000/svg" xmlns:xlink="http://www.w3.org/1999/xlink" x="0px" y="0px" viewBox="0 0 100 100"
	 xml:space="preserve">
<path style="fill:none;stroke:#000000;stroke-width:4;stroke-linecap:round;stroke-linejoin:round;stroke-miterlimit:10;" d="
	M16.3,70.733c0,0-1.862,11.061,5.832,12.303c7.694,1.242,51.685,2.664,56.498,0.38c4.813-2.284,5.346-9.029,5.346-9.029
	l-0.104-48.822c0.342-4.572-2.385-7.815-8.816-9.456l-51.21,0.937c0,0-6.187,0.453-7.25,7.212
	C15.532,31.016,16.3,70.733,16.3,70.733z"/>
<path style="fill:none;stroke:#000000;stroke-width:2;stroke-linecap:round;stroke-linejoin:round;stroke-miterlimit:10;" d="
	M52.205,45.566l3.002-4.614c0,0-3.656-4.603-9.94-4.362c-6.09,0.234-10.107,2.184-13.01,6.571c-2.282,3.449-3.671,8.041-2.748,13.85
	s6.898,10.107,11.636,10.589c4.749,0.484,11.166-1.606,12.837-6.06c1.479-3.943,1.349-10.57,1.349-10.57l-11.883-0.443l-0.569,4.935
	l7.489,0.295c0,0,0.236,4.59-6.399,5.089c-6.635,0.498-8.041-5.396-8.369-7.71c-0.328-2.313,1.999-7.346,4.921-8.737
	C43.441,43.007,48.516,42.305,52.205,45.566z"/>
<path style="fill-rule:evenodd;clip-rule:evenodd;" d="M34.578,31.214c-0.417,0.269-0.974,0.149-1.243-0.268
	c-0.269-0.417-0.149-0.974,0.268-1.243c0.417-0.269,0.974-0.149,1.243,0.268S34.995,30.945,34.578,31.214z"/>
<path style="fill-rule:evenodd;clip-rule:evenodd;" d="M24.493,31.302c-0.417,0.269-0.974,0.149-1.243-0.268
	s-0.149-0.974,0.268-1.243c0.417-0.269,0.974-0.149,1.243,0.268C25.03,30.475,24.91,31.032,24.493,31.302z"/>
<path style="fill-rule:evenodd;clip-rule:evenodd;" d="M31.487,23.922c-0.417,0.269-0.974,0.149-1.243-0.268
	c-0.269-0.417-0.149-0.974,0.268-1.243c0.417-0.269,0.974-0.149,1.243,0.268S31.904,23.652,31.487,23.922z"/>
<line style="fill:none;stroke:#000000;stroke-width:2;stroke-linecap:round;stroke-linejoin:round;stroke-miterlimit:10;" x1="77.008" y1="75.86" x2="80.598" y2="80.283"/>
<line style="fill:none;stroke:#000000;stroke-width:2;stroke-linecap:round;stroke-linejoin:round;stroke-miterlimit:10;" x1="71.566" y1="78.846" x2="73.58" y2="83.27"/>
<line style="fill:none;stroke:#000000;stroke-width:2;stroke-linecap:round;stroke-linejoin:round;stroke-miterlimit:10;" x1="65.25" y1="79.369" x2="68.022" y2="83.517"/>
<line style="fill:none;stroke:#000000;stroke-width:2;stroke-linecap:round;stroke-linejoin:round;stroke-miterlimit:10;" x1="32.917" y1="83.749" x2="34.278" y2="79.137"/>
<line style="fill:none;stroke:#000000;stroke-width:2;stroke-linecap:round;stroke-linejoin:round;stroke-miterlimit:10;" x1="27.629" y1="83.243" x2="30.324" y2="77.483"/>
<line style="fill:none;stroke:#000000;stroke-width:2;stroke-linecap:round;stroke-linejoin:round;stroke-miterlimit:10;" x1="20.928" y1="83.763" x2="24.883" y2="79.397"/>
<line style="fill:none;stroke:#000000;stroke-width:2;stroke-linecap:round;stroke-linejoin:round;stroke-miterlimit:10;" x1="70.782" y1="33.578" x2="81.986" y2="28.257"/>
<line style="fill:none;stroke:#000000;stroke-width:2;stroke-linecap:round;stroke-linejoin:round;stroke-miterlimit:10;" x1="75.308" y1="36.511" x2="84.187" y2="32.77"/>
<line style="fill:none;stroke:#000000;stroke-width:2;stroke-linecap:round;stroke-linejoin:round;stroke-miterlimit:10;" x1="41.783" y1="18.449" x2="43.584" y2="26.703"/>
<line style="fill:none;stroke:#000000;stroke-width:2;stroke-linecap:round;stroke-linejoin:round;stroke-miterlimit:10;" x1="46.41" y1="16.634" x2="47.035" y2="23.236"/>
<line style="fill:none;stroke:#000000;stroke-width:2;stroke-linecap:round;stroke-linejoin:round;stroke-miterlimit:10;" x1="59.99" y1="16.622" x2="58.977" y2="22.626"/>
<line style="fill:none;stroke:#000000;stroke-width:2;stroke-linecap:round;stroke-linejoin:round;stroke-miterlimit:10;" x1="65.055" y1="16.559" x2="63.955" y2="21.395"/>
<line style="fill:none;stroke:#000000;stroke-width:2;stroke-linecap:round;stroke-linejoin:round;stroke-miterlimit:10;" x1="17.299" y1="36.71" x2="24.001" y2="42.479"/>
<line style="fill:none;stroke:#000000;stroke-width:2;stroke-linecap:round;stroke-linejoin:round;stroke-miterlimit:10;" x1="16.586" y1="42.678" x2="22.401" y2="46.718"/>
<line style="fill:none;stroke:#000000;stroke-width:2;stroke-linecap:round;stroke-linejoin:round;stroke-miterlimit:10;" x1="17.362" y1="55.568" x2="22.188" y2="53.617"/>
<line style="fill:none;stroke:#000000;stroke-width:2;stroke-linecap:round;stroke-linejoin:round;stroke-miterlimit:10;" x1="38.006" y1="83.375" x2="39.32" y2="79.401"/>
<line style="fill:none;stroke:#000000;stroke-width:2;stroke-linecap:round;stroke-linejoin:round;stroke-miterlimit:10;" x1="43.025" y1="83.389" x2="43.478" y2="78.269"/>
<polygon style="fill:none;stroke:#000000;stroke-width:2;stroke-linecap:round;stroke-linejoin:round;stroke-miterlimit:10;" points="
	64.683,45.22 64.683,50.183 59.006,50.711 59.223,55.37 63.91,54.577 64.199,60.212 68.797,60.1 68.338,54.754 73.523,54.361 
	73.354,48.694 68.885,49.407 69.191,44.516 "/>
</svg>